<?xml version="1.0"?>
<svg width="167.0869141" height="242.6669922" xmlns="http://www.w3.org/2000/svg">
 <metadata id="metadata43">image/svg+xml</metadata>

 <g>
  <title>background</title>
  <rect fill="none" id="canvas_background" height="402" width="582" y="-1" x="-1"/>
 </g>
 <g>
  <title>Layer 1</title>
  <g fill-rule="nonzero" clip-rule="nonzero" stroke="#000000" stroke-miterlimit="4" id="Layer_x0020_1">
   <path fill="#FFFFFF" stroke-width="0.5" id="path5" d="m166.836914,235.547852c0,3.777344 -3.086914,6.869141 -6.871094,6.869141l-152.85498,0c-3.7749,0 -6.86084,-3.091797 -6.86084,-6.869141l0,-228.427732c0,-3.77735 3.08594,-6.87012 6.86084,-6.87012l152.85498,0c3.78418,0 6.871094,3.09277 6.871094,6.87012l0,228.427732z"/>
   <g id="g7">
    <g id="g9"/>
   </g>
   <g id="g15"/>
   <g id="g19"/>
   <g id="g23">
    <g id="g25"/>
   </g>
   <g id="g31">
    <g id="g33"/>
   </g>
  </g>
  <g id="layer1-7-88" transform="matrix(2.2711763,2.2711763,-2.0765626,2.0765626,117.0668,94.436511)">
   <path fill="#000000" d="m7.989,3.103c-0.242,-4.057 -7.747,-11.693 -7.989,-13.603c-0.242,1.909 -7.747,9.545 -7.989,13.603c-0.169,2.868 1.695,4.057 3.39,4.057c1.83517,-0.02158 3.35087,-2.80069 3.873,-3.341c0.242,0.716 -1.603,6.682 -2.179,6.682l5.811,0c-0.576,0 -2.421,-5.966001 -2.179,-6.682c0.45715,0.4963 1.79713,3.25783 3.874,3.341c1.694,-0.001 3.557,-1.189 3.388,-4.057z" id="sl-4"/>
  </g>
  <g id="layer1-9" transform="matrix(2.374378,-2.374378,2.2221918,2.2221918,59.383523,95.635421)">
   <path fill="#df0000" d="m3.676,-9c-3.243,0 -3.676,3.477 -3.676,3.477c0,0 -0.433,-3.477 -3.676,-3.477c-2.27,0 -4.324,1.559 -4.324,4.5c0,3.886 6.57915,7.79381 8,13.5c1.35201,-5.7014 8,-9.614 8,-13.5c0,-2.941 -2.054,-4.5 -4.324,-4.5z" id="hl"/>
  </g>
  <g id="layer1-1" transform="matrix(-2.145754,-2.145754,2.145754,-2.145754,110.19878,305.77847)">
   <path fill="#000000" d="m50.29147,22.698231c0,0 2.375,-1.900002 2.375,-4.534c0,-1.542 -1.368999,-4.102 -4.534,-4.102c-3.165001,0 -4.534,2.561 -4.534,4.102c0,2.633999 2.375,4.534 2.375,4.534c-2.638,-2.055 -7.341,-0.652 -7.341,3.455c0,2.056 1.68,4.317999 4.318001,4.317999c3.165001,0 4.534,-3.455 4.534,-3.455c0,0 0.402,3.938 -1.943001,6.046l5.181999,0c-2.344997,-2.106998 -1.942997,-6.046 -1.942997,-6.046c0,0 1.368999,3.455 4.533997,3.455c2.639,0 4.318001,-2.263 4.318001,-4.317999c0,-4.107 -4.702999,-5.51 -7.341,-3.455z" id="cl"/>
  </g>
  <g id="layer1-2" transform="matrix(2.235014,-2.235014,2.235014,2.235014,117.78936,156.16707)">
   <path fill="#df0000" d="m3.24333,-4.72533c-2.117,-2.864 -3.24333,-5.77467 -3.24333,-5.77467c0,0 -1.12633,2.91067 -3.24333,5.77467c-2.118,2.863 -4.75667,4.72533 -4.75667,4.72533c0,0 2.63867,1.86133 4.75667,4.72633c2.117,2.863 3.24333,5.77367 3.24333,5.77367c0,0 1.12633,-2.91067 3.24333,-5.77367c2.118,-2.865 4.75667,-4.72633 4.75667,-4.72633c0,0 -2.63867,-1.86233 -4.75667,-4.72533z" id="dl"/>
  </g>
 </g>
</svg>